Point (1) = {0.000000000000,0.000000000000,3.000000000000};
Point (2) = {1.000000000000,0.000000000000,3.000000000000};
Point (3) = {2.000000000000,0.000000000000,3.000000000000};
Point (4) = {3.000000000000,0.000000000000,3.000000000000};
Point (5) = {3.000000000000,1.000000000000,3.000000000000};
Point (6) = {2.000000000000,1.000000000000,3.000000000000};
Point (7) = {1.000000000000,1.000000000000,3.000000000000};
Point (8) = {0.000000000000,1.000000000000,3.000000000000};
Point (9) = {0.000000000000,2.000000000000,3.000000000000};
Point (10) = {1.000000000000,2.000000000000,3.000000000000};
Point (11) = {2.000000000000,2.000000000000,3.000000000000};
Point (12) = {3.000000000000,2.000000000000,3.000000000000};
Point (13) = {3.000000000000,3.000000000000,3.000000000000};
Point (14) = {2.000000000000,3.000000000000,3.000000000000};
Point (15) = {1.000000000000,3.000000000000,3.000000000000};
Point (16) = {0.000000000000,3.000000000000,3.000000000000};
Point (17) = {3.000000000000,0.000000000000,2.000000000000};
Point (18) = {3.000000000000,0.000000000000,1.000000000000};
Point (19) = {3.000000000000,0.000000000000,0.000000000000};
Point (20) = {3.000000000000,1.000000000000,0.000000000000};
Point (21) = {3.000000000000,1.000000000000,1.000000000000};
Point (22) = {3.000000000000,1.000000000000,2.000000000000};
Point (23) = {3.000000000000,2.000000000000,0.000000000000};
Point (24) = {3.000000000000,2.000000000000,1.000000000000};
Point (25) = {3.000000000000,2.000000000000,2.000000000000};
Point (26) = {3.000000000000,3.000000000000,0.000000000000};
Point (27) = {3.000000000000,3.000000000000,1.000000000000};
Point (28) = {3.000000000000,3.000000000000,2.000000000000};
Point (29) = {2.000000000000,0.000000000000,0.000000000000};
Point (30) = {2.000000000000,1.000000000000,0.000000000000};
Point (31) = {2.000000000000,2.000000000000,0.000000000000};
Point (32) = {2.000000000000,3.000000000000,0.000000000000};
Point (33) = {1.000000000000,3.000000000000,0.000000000000};
Point (34) = {1.000000000000,2.000000000000,0.000000000000};
Point (35) = {1.000000000000,1.000000000000,0.000000000000};
Point (36) = {1.000000000000,0.000000000000,0.000000000000};
Point (37) = {0.000000000000,0.000000000000,0.000000000000};
Point (38) = {0.000000000000,1.000000000000,0.000000000000};
Point (39) = {0.000000000000,2.000000000000,0.000000000000};
Point (40) = {0.000000000000,3.000000000000,0.000000000000};
Point (41) = {0.000000000000,3.000000000000,1.000000000000};
Point (42) = {0.000000000000,2.000000000000,1.000000000000};
Point (43) = {0.000000000000,1.000000000000,1.000000000000};
Point (44) = {0.000000000000,0.000000000000,1.000000000000};
Point (45) = {0.000000000000,0.000000000000,2.000000000000};
Point (46) = {0.000000000000,1.000000000000,2.000000000000};
Point (47) = {0.000000000000,2.000000000000,2.000000000000};
Point (48) = {0.000000000000,3.000000000000,2.000000000000};
Point (49) = {1.000000000000,0.000000000000,2.000000000000};
Point (50) = {1.000000000000,0.000000000000,1.000000000000};
Point (51) = {2.000000000000,0.000000000000,2.000000000000};
Point (52) = {2.000000000000,0.000000000000,1.000000000000};
Point (53) = {1.000000000000,1.000000000000,2.000000000000};
Point (54) = {1.000000000000,1.000000000000,1.000000000000};
Point (55) = {1.000000000000,2.000000000000,2.000000000000};
Point (56) = {1.000000000000,2.000000000000,1.000000000000};
Point (57) = {2.000000000000,2.000000000000,1.000000000000};
Point (58) = {2.000000000000,2.000000000000,2.000000000000};
Point (59) = {2.000000000000,1.000000000000,2.000000000000};
Point (60) = {2.000000000000,1.000000000000,1.000000000000};
Point (61) = {2.000000000000,3.000000000000,1.000000000000};
Point (62) = {2.000000000000,3.000000000000,2.000000000000};
Point (63) = {1.000000000000,3.000000000000,1.000000000000};
Point (64) = {1.000000000000,3.000000000000,2.000000000000};
Line (1) = {1,2};
Line (2) = {2,3};
Line (3) = {3,4};
Line (4) = {4,5};
Line (5) = {5,12};
Line (6) = {12,13};
Line (7) = {13,14};
Line (8) = {14,15};
Line (9) = {15,16};
Line (10) = {16,9};
Line (11) = {9,8};
Line (12) = {8,1};
Line (13) = {2,7};
Line (14) = {7,10};
Line (15) = {10,15};
Line (16) = {3,6};
Line (17) = {6,11};
Line (18) = {11,14};
Line (19) = {12,11};
Line (20) = {11,10};
Line (21) = {10,9};
Line (22) = {5,6};
Line (23) = {6,7};
Line (24) = {7,8};
Line (25) = {4,17};
Line (26) = {17,18};
Line (27) = {18,19};
Line (28) = {19,20};
Line (29) = {20,21};
Line (30) = {21,22};
Line (31) = {22,5};
Line (32) = {20,23};
Line (33) = {23,24};
Line (34) = {24,25};
Line (35) = {25,12};
Line (36) = {23,26};
Line (37) = {26,27};
Line (38) = {27,28};
Line (39) = {28,13};
Line (40) = {22,25};
Line (41) = {25,28};
Line (42) = {24,27};
Line (43) = {21,24};
Line (44) = {18,21};
Line (45) = {17,22};
Line (46) = {19,29};
Line (47) = {29,36};
Line (48) = {36,37};
Line (49) = {37,38};
Line (50) = {38,39};
Line (51) = {39,40};
Line (52) = {40,33};
Line (53) = {33,32};
Line (54) = {32,26};
Line (55) = {29,30};
Line (56) = {30,31};
Line (57) = {31,32};
Line (58) = {36,35};
Line (59) = {35,34};
Line (60) = {34,33};
Line (61) = {39,34};
Line (62) = {34,31};
Line (63) = {31,23};
Line (64) = {30,20};
Line (65) = {35,30};
Line (66) = {38,35};
Line (67) = {37,44};
Line (68) = {44,45};
Line (69) = {45,1};
Line (70) = {8,46};
Line (71) = {46,43};
Line (72) = {43,38};
Line (73) = {9,47};
Line (74) = {47,42};
Line (75) = {42,39};
Line (76) = {16,48};
Line (77) = {48,41};
Line (78) = {41,40};
Line (79) = {44,43};
Line (80) = {43,42};
Line (81) = {42,41};
Line (82) = {47,48};
Line (83) = {46,47};
Line (84) = {45,46};
Line (85) = {28,62};
Line (86) = {62,64};
Line (87) = {64,48};
Line (88) = {63,41};
Line (89) = {61,63};
Line (90) = {27,61};
Line (91) = {32,61};
Line (92) = {61,62};
Line (93) = {62,14};
Line (94) = {64,15};
Line (95) = {63,64};
Line (96) = {33,63};
Line (97) = {34,56};
Line (98) = {56,55};
Line (99) = {55,10};
Line (100) = {31,57};
Line (101) = {57,58};
Line (102) = {58,11};
Line (103) = {25,58};
Line (104) = {58,55};
Line (105) = {55,47};
Line (106) = {56,42};
Line (107) = {57,56};
Line (108) = {24,57};
Line (109) = {22,59};
Line (110) = {59,53};
Line (111) = {53,46};
Line (112) = {54,43};
Line (113) = {60,54};
Line (114) = {21,60};
Line (115) = {35,54};
Line (116) = {54,53};
Line (117) = {53,7};
Line (118) = {59,6};
Line (119) = {60,59};
Line (120) = {30,60};
Line (121) = {17,51};
Line (122) = {51,49};
Line (123) = {49,45};
Line (124) = {50,44};
Line (125) = {52,50};
Line (126) = {18,52};
Line (127) = {36,50};
Line (128) = {50,49};
Line (129) = {49,2};
Line (130) = {29,52};
Line (131) = {52,51};
Line (132) = {51,3};
Line (133) = {50,54};
Line (134) = {54,56};
Line (135) = {56,63};
Line (136) = {57,61};
Line (137) = {60,57};
Line (138) = {52,60};
Line (139) = {49,53};
Line (140) = {53,55};
Line (141) = {55,64};
Line (142) = {58,62};
Line (143) = {59,58};
Line (144) = {51,59};
Line Loop (1) = {24,12,1,13};
Plane Surface (1) = {1}; Physical Surface (1) = {1};
Line Loop (2) = {23,-13,2,16};
Plane Surface (2) = {2}; Physical Surface (2) = {2};
Line Loop (3) = {22,-16,3,4};
Plane Surface (3) = {3}; Physical Surface (3) = {3};
Line Loop (4) = {19,-17,-22,5};
Plane Surface (4) = {4}; Physical Surface (4) = {4};
Line Loop (5) = {7,-18,-19,6};
Plane Surface (5) = {5}; Physical Surface (5) = {5};
Line Loop (6) = {8,-15,-20,18};
Plane Surface (6) = {6}; Physical Surface (6) = {6};
Line Loop (7) = {9,10,-21,15};
Plane Surface (7) = {7}; Physical Surface (7) = {7};
Line Loop (8) = {21,11,-24,14};
Plane Surface (8) = {8}; Physical Surface (8) = {8};
Line Loop (9) = {31,-4,25,45};
Plane Surface (9) = {9}; Physical Surface (9) = {9};
Line Loop (10) = {30,-45,26,44};
Plane Surface (10) = {10}; Physical Surface (10) = {10};
Line Loop (11) = {29,-44,27,28};
Plane Surface (11) = {11}; Physical Surface (11) = {11};
Line Loop (12) = {33,-43,-29,32};
Plane Surface (12) = {12}; Physical Surface (12) = {12};
Line Loop (13) = {37,-42,-33,36};
Plane Surface (13) = {13}; Physical Surface (13) = {13};
Line Loop (14) = {38,-41,-34,42};
Plane Surface (14) = {14}; Physical Surface (14) = {14};
Line Loop (15) = {39,-6,-35,41};
Plane Surface (15) = {15}; Physical Surface (15) = {15};
Line Loop (16) = {35,-5,-31,40};
Plane Surface (16) = {16}; Physical Surface (16) = {16};
Line Loop (17) = {55,64,-28,46};
Plane Surface (17) = {17}; Physical Surface (17) = {17};
Line Loop (18) = {58,65,-55,47};
Plane Surface (18) = {18}; Physical Surface (18) = {18};
Line Loop (19) = {49,66,-58,48};
Plane Surface (19) = {19}; Physical Surface (19) = {19};
Line Loop (20) = {50,61,-59,-66};
Plane Surface (20) = {20}; Physical Surface (20) = {20};
Line Loop (21) = {51,52,-60,-61};
Plane Surface (21) = {21}; Physical Surface (21) = {21};
Line Loop (22) = {60,53,-57,-62};
Plane Surface (22) = {22}; Physical Surface (22) = {22};
Line Loop (23) = {57,54,-36,-63};
Plane Surface (23) = {23}; Physical Surface (23) = {23};
Line Loop (24) = {56,63,-32,-64};
Plane Surface (24) = {24}; Physical Surface (24) = {24};
Line Loop (25) = {72,-49,67,79};
Plane Surface (25) = {25}; Physical Surface (25) = {25};
Line Loop (26) = {71,-79,68,84};
Plane Surface (26) = {26}; Physical Surface (26) = {26};
Line Loop (27) = {70,-84,69,-12};
Plane Surface (27) = {27}; Physical Surface (27) = {27};
Line Loop (28) = {73,-83,-70,-11};
Plane Surface (28) = {28}; Physical Surface (28) = {28};
Line Loop (29) = {76,-82,-73,-10};
Plane Surface (29) = {29}; Physical Surface (29) = {29};
Line Loop (30) = {77,-81,-74,82};
Plane Surface (30) = {30}; Physical Surface (30) = {30};
Line Loop (31) = {78,-51,-75,81};
Plane Surface (31) = {31}; Physical Surface (31) = {31};
Line Loop (32) = {75,-50,-72,80};
Plane Surface (32) = {32}; Physical Surface (32) = {32};
Line Loop (33) = {-96,-52,-78,-88};
Plane Surface (33) = {33}; Physical Surface (33) = {33};
Line Loop (34) = {-91,-53,96,-89};
Plane Surface (34) = {34}; Physical Surface (34) = {34};
Line Loop (35) = {-37,-54,91,-90};
Plane Surface (35) = {35}; Physical Surface (35) = {35};
Line Loop (36) = {-38,90,92,-85};
Plane Surface (36) = {36}; Physical Surface (36) = {36};
Line Loop (37) = {-39,85,93,-7};
Plane Surface (37) = {37}; Physical Surface (37) = {37};
Line Loop (38) = {-93,86,94,-8};
Plane Surface (38) = {38}; Physical Surface (38) = {38};
Line Loop (39) = {-94,87,-76,-9};
Plane Surface (39) = {39}; Physical Surface (39) = {39};
Line Loop (40) = {-95,88,-77,-87};
Plane Surface (40) = {40}; Physical Surface (40) = {40};
Line Loop (41) = {103,102,-19,-35};
Plane Surface (41) = {41}; Physical Surface (41) = {41};
Line Loop (42) = {108,101,-103,-34};
Plane Surface (42) = {42}; Physical Surface (42) = {42};
Line Loop (43) = {-63,100,-108,-33};
Plane Surface (43) = {43}; Physical Surface (43) = {43};
Line Loop (44) = {-62,97,-107,-100};
Plane Surface (44) = {44}; Physical Surface (44) = {44};
Line Loop (45) = {-61,-75,-106,-97};
Plane Surface (45) = {45}; Physical Surface (45) = {45};
Line Loop (46) = {106,-74,-105,-98};
Plane Surface (46) = {46}; Physical Surface (46) = {46};
Line Loop (47) = {105,-73,-21,-99};
Plane Surface (47) = {47}; Physical Surface (47) = {47};
Line Loop (48) = {99,-20,-102,104};
Plane Surface (48) = {48}; Physical Surface (48) = {48};
Line Loop (49) = {109,118,-22,-31};
Plane Surface (49) = {49}; Physical Surface (49) = {49};
Line Loop (50) = {114,119,-109,-30};
Plane Surface (50) = {50}; Physical Surface (50) = {50};
Line Loop (51) = {-64,120,-114,-29};
Plane Surface (51) = {51}; Physical Surface (51) = {51};
Line Loop (52) = {-65,115,-113,-120};
Plane Surface (52) = {52}; Physical Surface (52) = {52};
Line Loop (53) = {-66,-72,-112,-115};
Plane Surface (53) = {53}; Physical Surface (53) = {53};
Line Loop (54) = {112,-71,-111,-116};
Plane Surface (54) = {54}; Physical Surface (54) = {54};
Line Loop (55) = {111,-70,-24,-117};
Plane Surface (55) = {55}; Physical Surface (55) = {55};
Line Loop (56) = {110,117,-23,-118};
Plane Surface (56) = {56}; Physical Surface (56) = {56};
Line Loop (57) = {-121,-25,-3,-132};
Plane Surface (57) = {57}; Physical Surface (57) = {57};
Line Loop (58) = {-126,-26,121,-131};
Plane Surface (58) = {58}; Physical Surface (58) = {58};
Line Loop (59) = {-46,-27,126,-130};
Plane Surface (59) = {59}; Physical Surface (59) = {59};
Line Loop (60) = {-47,130,125,-127};
Plane Surface (60) = {60}; Physical Surface (60) = {60};
Line Loop (61) = {-48,127,124,-67};
Plane Surface (61) = {61}; Physical Surface (61) = {61};
Line Loop (62) = {-124,128,123,-68};
Plane Surface (62) = {62}; Physical Surface (62) = {62};
Line Loop (63) = {-123,129,-1,-69};
Plane Surface (63) = {63}; Physical Surface (63) = {63};
Line Loop (64) = {-122,132,-2,-129};
Plane Surface (64) = {64}; Physical Surface (64) = {64};
Line Loop (65) = {133,112,-79,-124};
Plane Surface (65) = {65}; Physical Surface (65) = {65};
Line Loop (66) = {138,113,-133,-125};
Plane Surface (66) = {66}; Physical Surface (66) = {66};
Line Loop (67) = {44,114,-138,-126};
Plane Surface (67) = {67}; Physical Surface (67) = {67};
Line Loop (68) = {43,108,-137,-114};
Plane Surface (68) = {68}; Physical Surface (68) = {68};
Line Loop (69) = {42,90,-136,-108};
Plane Surface (69) = {69}; Physical Surface (69) = {69};
Line Loop (70) = {136,89,-135,-107};
Plane Surface (70) = {70}; Physical Surface (70) = {70};
Line Loop (71) = {135,88,-81,-106};
Plane Surface (71) = {71}; Physical Surface (71) = {71};
Line Loop (72) = {134,106,-80,-112};
Plane Surface (72) = {72}; Physical Surface (72) = {72};
Line Loop (73) = {139,111,-84,-123};
Plane Surface (73) = {73}; Physical Surface (73) = {73};
Line Loop (74) = {144,110,-139,-122};
Plane Surface (74) = {74}; Physical Surface (74) = {74};
Line Loop (75) = {45,109,-144,-121};
Plane Surface (75) = {75}; Physical Surface (75) = {75};
Line Loop (76) = {40,103,-143,-109};
Plane Surface (76) = {76}; Physical Surface (76) = {76};
Line Loop (77) = {41,85,-142,-103};
Plane Surface (77) = {77}; Physical Surface (77) = {77};
Line Loop (78) = {142,86,-141,-104};
Plane Surface (78) = {78}; Physical Surface (78) = {78};
Line Loop (79) = {141,87,-82,-105};
Plane Surface (79) = {79}; Physical Surface (79) = {79};
Line Loop (80) = {140,105,-83,-111};
Plane Surface (80) = {80}; Physical Surface (80) = {80};
Line Loop (81) = {144,118,-16,-132};
Plane Surface (81) = {81}; Physical Surface (81) = {81};
Line Loop (82) = {138,119,-144,-131};
Plane Surface (82) = {82}; Physical Surface (82) = {82};
Line Loop (83) = {55,120,-138,-130};
Plane Surface (83) = {83}; Physical Surface (83) = {83};
Line Loop (84) = {56,100,-137,-120};
Plane Surface (84) = {84}; Physical Surface (84) = {84};
Line Loop (85) = {57,91,-136,-100};
Plane Surface (85) = {85}; Physical Surface (85) = {85};
Line Loop (86) = {136,92,-142,-101};
Plane Surface (86) = {86}; Physical Surface (86) = {86};
Line Loop (87) = {142,93,-18,-102};
Plane Surface (87) = {87}; Physical Surface (87) = {87};
Line Loop (88) = {143,102,-17,-118};
Plane Surface (88) = {88}; Physical Surface (88) = {88};
Line Loop (89) = {139,117,-13,-129};
Plane Surface (89) = {89}; Physical Surface (89) = {89};
Line Loop (90) = {133,116,-139,-128};
Plane Surface (90) = {90}; Physical Surface (90) = {90};
Line Loop (91) = {58,115,-133,-127};
Plane Surface (91) = {91}; Physical Surface (91) = {91};
Line Loop (92) = {59,97,-134,-115};
Plane Surface (92) = {92}; Physical Surface (92) = {92};
Line Loop (93) = {60,96,-135,-97};
Plane Surface (93) = {93}; Physical Surface (93) = {93};
Line Loop (94) = {135,95,-141,-98};
Plane Surface (94) = {94}; Physical Surface (94) = {94};
Line Loop (95) = {141,94,-15,-99};
Plane Surface (95) = {95}; Physical Surface (95) = {95};
Line Loop (96) = {140,99,-14,-117};
Plane Surface (96) = {96}; Physical Surface (96) = {96};
Line Loop (97) = {74,-80,-71,83};
Plane Surface (97) = {97}; Physical Surface (97) = {97};
Line Loop (98) = {134,98,-140,-116};
Plane Surface (98) = {98}; Physical Surface (98) = {98};
Line Loop (99) = {137,101,-143,-119};
Plane Surface (99) = {99}; Physical Surface (99) = {99};
Line Loop (100) = {43,34,-40,-30};
Plane Surface (100) = {100}; Physical Surface (100) = {100};
Line Loop (101) = {17,20,-14,-23};
Plane Surface (101) = {101}; Physical Surface (101) = {101};
Line Loop (102) = {143,104,-140,-110};
Plane Surface (102) = {102}; Physical Surface (102) = {102};
Line Loop (103) = {137,107,-134,-113};
Plane Surface (103) = {103}; Physical Surface (103) = {103};
Line Loop (104) = {59,62,-56,-65};
Plane Surface (104) = {104}; Physical Surface (104) = {104};
Line Loop (105) = {-125,131,122,-128};
Plane Surface (105) = {105}; Physical Surface (105) = {105};
Line Loop (106) = {-113,119,110,-116};
Plane Surface (106) = {106}; Physical Surface (106) = {106};
Surface Loop (1) = {9,3,81,75,49,57};
Volume (1) = {1};
Physical Volume (1) = {1};
Surface Loop (2) = {10,-75,82,67,50,58};
Volume (2) = {2};
Physical Volume (2) = {2};
Surface Loop (3) = {11,-67,83,17,51,59};
Volume (3) = {3};
Physical Volume (3) = {3};
Surface Loop (4) = {-83,66,91,18,52,60};
Volume (4) = {4};
Physical Volume (4) = {4};
Surface Loop (5) = {-91,65,25,19,53,61};
Volume (5) = {5};
Physical Volume (5) = {5};
Surface Loop (6) = {90,73,26,-65,54,62};
Volume (6) = {6};
Physical Volume (6) = {6};
Surface Loop (7) = {89,1,27,-73,55,63};
Volume (7) = {7};
Physical Volume (7) = {7};
Surface Loop (8) = {-81,2,-89,74,56,64};
Volume (8) = {8};
Physical Volume (8) = {8};
Surface Loop (9) = {16,4,88,76,41,-49};
Volume (9) = {9};
Physical Volume (9) = {9};
Surface Loop (10) = {12,68,84,24,43,-51};
Volume (10) = {10};
Physical Volume (10) = {10};
Surface Loop (11) = {92,72,32,20,45,-53};
Volume (11) = {11};
Physical Volume (11) = {11};
Surface Loop (12) = {96,8,28,80,47,-55};
Volume (12) = {12};
Physical Volume (12) = {12};
Surface Loop (13) = {15,5,87,77,37,-41};
Volume (13) = {13};
Physical Volume (13) = {13};
Surface Loop (14) = {14,-77,86,69,36,42};
Volume (14) = {14};
Physical Volume (14) = {14};
Surface Loop (15) = {13,-69,85,23,35,-43};
Volume (15) = {15};
Physical Volume (15) = {15};
Surface Loop (16) = {-85,70,93,22,34,44};
Volume (16) = {16};
Physical Volume (16) = {16};
Surface Loop (17) = {-93,71,31,21,33,-45};
Volume (17) = {17};
Physical Volume (17) = {17};
Surface Loop (18) = {94,79,30,-71,40,46};
Volume (18) = {18};
Physical Volume (18) = {18};
Surface Loop (19) = {95,7,29,-79,39,-47};
Volume (19) = {19};
Physical Volume (19) = {19};
Surface Loop (20) = {-87,6,-95,78,38,48};
Volume (20) = {20};
Physical Volume (20) = {20};
Surface Loop (21) = {98,-80,97,-72,-46,-54};
Volume (21) = {21};
Physical Volume (21) = {21};
Surface Loop (22) = {100,-76,99,-68,-42,-50};
Volume (22) = {22};
Physical Volume (22) = {22};
Surface Loop (23) = {-82,-74,-90,-66,106,105};
Volume (23) = {23};
Physical Volume (23) = {23};
Surface Loop (24) = {-88,101,-96,102,-48,-56};
Volume (24) = {24};
Physical Volume (24) = {24};
Surface Loop (25) = {-84,103,-92,104,-44,-52};
Volume (25) = {25};
Physical Volume (25) = {25};
